# xmcd CD database file generated by Grip 3.3.1
# 
# Track frame offsets:
#       150
#       10969
#       21678
# 
# Disc length: 432 seconds
# 
# Revision: 1
# Processed by: cddbd v1.5.2PL0 Copyright (c) Steve Scherf et al.
# Submitted via: Grip 3.3.1
# 
DISCID=2001ae03
DTITLE=Daywind Records - Go Tell It On The Mountain
DYEAR=1900
DGENRE=Gospel
TTITLE0=Go Tell It On The Mountain [With BGV]
TTITLE1=Go Tell It On The Mountain [Wihtout BGV]
TTITLE2=Go Tell It On The Mountain [FULL
EXTD=
EXTT0=
EXTT1=
EXTT2=
PLAYORDER=
